<svg id="Layer_1" data-name="Layer 1" xmlns="http://www.w3.org/2000/svg" viewBox="0 0 841.96 258.23"><defs><style>.cls-1{font-size:200px;font-family:GalderglynnTitlingRg-BoldItalic, Galderglynn Titling;font-weight:700;font-style:italic;}.cls-1,.cls-4{fill:#fff;}.cls-2{letter-spacing:-0.03em;}.cls-3{letter-spacing:0em;}</style></defs><title>go_bar_white</title><text class="cls-1" transform="translate(0 171.4)">GO <tspan class="cls-2" x="377.19" y="0">B</tspan><tspan class="cls-3" x="517.79" y="0">AR</tspan></text><path class="cls-4" d="M121.87,523c102.62,32.44,210,46,317,53.55,54,3.8,108.2,6.17,162.33,8.49,55.3,2.37,110.63,3.37,165.68-3.35A714.51,714.51,0,0,0,940.31,538c7.11-2.78,4-14.39-3.19-11.57A707.87,707.87,0,0,1,783.8,567.38c-54,8.06-108.46,8.46-162.91,6.45-107.21-4-215.12-8.22-321.4-23.59-59-8.54-117.54-20.82-174.43-38.81-7.38-2.33-10.54,9.25-3.19,11.57Z" transform="translate(-109.55 -328.6)"/><path class="cls-4" d="M909.16,520.68,945.5,530l-23.22,37" transform="translate(-109.55 -328.6)"/><path class="cls-4" d="M907.57,526.47l36.34,9.34L940.32,527,917.1,564c-4.12,6.56,6.26,12.59,10.36,6.06l23.22-37a6,6,0,0,0-3.58-8.81l-36.34-9.35c-7.49-1.92-10.68,9.65-3.19,11.58Z" transform="translate(-109.55 -328.6)"/></svg>